IKResults
version=1
nRows=16
nColumns=24
inDegrees=yes

Units are S.I. units (second, meters, Newtons, ...)
If the header above contains a line with 'inDegrees', this indicates whether rotational values are in degrees (yes) or radians (no).

endheader
time	pelvis_tilt	pelvis_list	pelvis_rotation	pelvis_tx	pelvis_ty	pelvis_tz	hip_flexion_r	hip_adduction_r	hip_rotation_r	knee_angle_r	ankle_angle_r	subtalar_angle_r	mtp_angle_r	hip_flexion_l	hip_adduction_l	hip_rotation_l	knee_angle_l	ankle_angle_l	subtalar_angle_l	mtp_angle_l	lumbar_extension	lumbar_bending	lumbar_rotation
4.150000	10.878265	2.133112	-179.564389	0.222441	0.849516	-1.202414	18.415541	-11.460462	-34.755278	-14.952607	-0.269876	5.486070	0.000000	20.470347	-16.343843	-27.422882	-18.073692	1.967066	7.614508	0.000000	-1.191770	1.839812	0.462717
4.155000	10.881338	2.118587	-179.584118	0.222558	0.849489	-1.202508	18.449243	-11.465377	-34.675164	-14.982135	-0.276172	5.401745	0.000000	20.486586	-16.331131	-27.433223	-18.082389	1.962116	7.532385	0.000000	-1.210294	1.812474	0.471074
4.160000	10.875517	2.126475	-179.605203	0.222648	0.849463	-1.202575	18.477275	-11.459863	-34.654636	-15.030214	-0.267943	5.381103	0.000000	20.500984	-16.355210	-27.426298	-18.122892	1.988487	7.513359	0.000000	-1.236262	1.805060	0.513388
4.165000	10.885465	2.113177	-179.641759	0.222718	0.849405	-1.202721	18.525433	-11.461553	-34.565632	-15.075766	-0.205335	5.371400	0.000000	20.524644	-16.370509	-27.458640	-18.164064	1.963474	7.476095	0.000000	-1.348824	1.966117	0.026505
4.170000	10.927740	2.157542	-179.692395	0.222790	0.849327	-1.202711	18.615369	-11.420089	-34.517433	-15.140985	-0.187073	5.345268	0.000000	20.595024	-16.432868	-27.406655	-18.227350	1.974717	7.393090	0.000000	-1.316871	2.033417	0.088425
4.175000	10.922654	2.135473	-179.703555	0.222947	0.849267	-1.202760	18.656760	-11.450893	-34.449856	-15.211026	-0.155297	5.282995	0.000000	20.627757	-16.418876	-27.342284	-18.289233	1.982374	7.315754	0.000000	-1.354172	2.006639	0.097243
4.180000	10.903746	2.134736	-179.728224	0.223105	0.849247	-1.202840	18.684788	-11.457648	-34.423149	-15.281352	-0.176886	5.281382	0.000000	20.647748	-16.443538	-27.333068	-18.361389	1.982833	7.297809	0.000000	-1.415817	2.005921	0.084647
4.185000	10.888171	2.106209	-179.739525	0.223251	0.849151	-1.202935	18.692919	-11.477725	-34.233611	-15.286437	-0.053873	5.287817	0.000000	20.681290	-16.434065	-27.281768	-18.452001	2.063426	7.246517	0.000000	-1.462823	1.957874	0.094385
4.190000	10.832699	2.107860	-179.718660	0.223522	0.849122	-1.203182	18.696282	-11.483279	-34.190902	-15.391996	0.014256	5.238187	0.000000	20.709489	-16.469965	-27.216108	-18.566085	2.073784	7.217178	0.000000	-1.577162	1.909491	0.073646
4.195000	10.807158	2.149663	-179.744894	0.223729	0.849119	-1.203308	18.773787	-11.469601	-34.247033	-15.598575	-0.009027	5.130284	0.000000	20.744463	-16.543633	-27.151766	-18.659925	2.080849	7.158716	0.000000	-1.655367	1.942313	0.121473
4.200000	10.822821	2.162381	-179.752570	0.224006	0.849009	-1.203390	18.878231	-11.463385	-34.053230	-15.726710	0.035682	4.937128	0.000000	20.845088	-16.557780	-26.942111	-18.772737	2.099037	6.929384	0.000000	-1.692369	1.949751	0.119040
4.205000	10.833368	2.158736	-179.792397	0.224191	0.848888	-1.203379	18.986261	-11.502490	-33.990955	-15.894058	0.084983	4.875256	0.000000	20.915038	-16.583592	-26.935359	-18.892162	2.137159	6.846357	0.000000	-1.723846	1.967617	0.139526
4.210000	10.898365	2.132731	-179.810829	0.224624	0.848677	-1.203435	19.177060	-11.538006	-33.732545	-16.056072	0.057002	4.565907	0.000000	21.076520	-16.550370	-26.706404	-19.011000	2.124763	6.526749	0.000000	-1.723148	1.939936	0.145664
4.215000	10.703417	2.029881	-179.730369	0.224747	0.848707	-1.203041	19.063351	-11.751687	-33.712525	-16.280850	0.175690	4.550354	0.000000	20.956035	-16.411318	-26.583852	-19.141394	2.243746	6.461713	0.000000	-1.865301	1.627320	0.733443
4.220000	10.786611	2.114003	-179.760481	0.225261	0.848441	-1.203606	19.298922	-11.660010	-33.567914	-16.507694	0.262468	4.432560	0.000000	21.200914	-16.585822	-26.455654	-19.370669	2.241423	6.383477	0.000000	-1.980709	1.888231	0.124151
4.225000	10.858793	2.131224	-179.808140	0.225619	0.848229	-1.203577	19.537613	-11.682636	-33.360237	-16.763938	0.329001	4.235663	0.000000	21.388285	-16.633960	-26.332426	-19.560743	2.280439	6.231447	0.000000	-1.966046	1.915169	0.202162
